:SAMPLES-PER-SECOND 30
:FULLY-SPECIFIED
:DEGREES
639
root  -6.44044 39.4818 10.729 -16.1377 -71.9389 13.2352
RightUpLeg  4.2138 16.9675 0.584645
RightLeg  43.5165 8.60062 8.36561
RightFoot  43.3901 -12.1774 23.9201
RightToes  -5.8209e-011 0 -3.6325e-017
Spine  -9.89348 24.7526 36.0628
Spine1  -1.89895 24.3563 -23.5276
HEad  25.4764 -59.5252 -17.2868
LeftShoulder1  2.01686 -6.36646 -13.4621
LeftArm  -71.5139 -33.588 -5.26157
LeftForeArm  157.667 -80.8663 -115.607
LeftHand  -0.246645 0.021 5.37786
RightShoulder  2.52778 10.5784 10.7375
RightArm  111.904 54.3132 166.028
RightForeArm  49.5469 54.7211 11.7472
RightHand  -0.24729 -0.0210522 -5.37781
LeftUpLeg  -8.15857 -5.94523 -9.1727
LeftLeg  65.2694 -74.9544 -65.7699
LeftFoot  8.19914 1.54982 -9.27988
LeftToes  -7.45818e-011 -3.37383e-011 1.08613e-011
640
root  -6.43123 39.4862 10.6923 -15.8201 -71.7912 12.9465
RightUpLeg  4.1571 16.8278 0.65669
RightLeg  43.493 8.68302 8.43989
RightFoot  43.4146 -12.1815 23.916
RightToes  -5.8209e-011 0 -3.6325e-017
Spine  -9.6725 24.7321 36.0573
Spine1  -1.96885 24.4442 -23.8317
HEad  25.4859 -59.4632 -17.3282
LeftShoulder1  1.94149 -6.22192 -12.9431
LeftArm  -71.6762 -33.8122 -5.22216
LeftForeArm  158.865 -80.8009 -116.584
LeftHand  -0.246645 0.021 5.37786
RightShoulder  2.52021 10.5611 10.7022
RightArm  111.588 54.4159 166.126
RightForeArm  49.5178 54.9334 11.8571
RightHand  -0.24729 -0.0210522 -5.37781
LeftUpLeg  -8.21729 -5.82786 -9.05449
LeftLeg  66.05 -75.0448 -66.6026
LeftFoot  8.20143 1.54759 -9.27394
LeftToes  -7.45818e-011 -3.37383e-011 1.08613e-011
641
root  -6.42594 39.4956 10.6537 -15.328 -71.6224 12.4487
RightUpLeg  4.17656 16.6972 0.854104
RightLeg  43.3936 8.66539 8.39328
RightFoot  43.4516 -12.1838 23.9025
RightToes  -5.8209e-011 0 -3.6325e-017
Spine  -9.7014 24.6642 35.9663
Spine1  -1.76956 24.4388 -23.8389
HEad  25.1555 -59.3727 -17.0849
LeftShoulder1  1.90856 -6.1661 -12.6943
LeftArm  -71.7429 -34.0473 -5.22565
LeftForeArm  159.168 -80.8279 -116.459
LeftHand  -0.246645 0.021 5.37786
RightShoulder  2.51311 10.5422 10.6729
RightArm  111.395 54.5043 166.142
RightForeArm  49.6383 55.1474 11.9572
RightHand  -0.24729 -0.0210522 -5.37781
LeftUpLeg  -8.24637 -5.73984 -8.88072
LeftLeg  66.8698 -75.1218 -67.4602
LeftFoot  8.20327 1.54337 -9.2387
LeftToes  -7.45818e-011 -3.37383e-011 1.08613e-011
642
root  -6.42574 39.5044 10.61 -15.0247 -71.464 12.142
RightUpLeg  4.21785 16.5687 1.00314
RightLeg  43.2899 8.60142 8.30028
RightFoot  43.4428 -12.2075 23.9511
RightToes  -5.8209e-011 0 -3.6325e-017
Spine  -9.93414 24.588 35.6455
Spine1  -1.367 24.389 -23.5543
HEad  24.5826 -59.261 -16.624
LeftShoulder1  1.93284 -6.21809 -12.853
LeftArm  -71.8004 -34.3879 -5.0879
LeftForeArm  157.856 -80.9545 -114.896
LeftHand  -0.246645 0.021 5.37786
RightShoulder  2.52952 10.5577 10.7807
RightArm  111.408 54.594 166.066
RightForeArm  49.8528 55.2779 12.0077
RightHand  -0.24729 -0.0210522 -5.37781
LeftUpLeg  -8.23885 -5.70728 -8.76653
LeftLeg  67.3809 -75.2208 -67.9797
LeftFoot  8.16634 1.5429 -9.25138
LeftToes  -7.45818e-011 -3.37383e-011 1.08613e-011
643
root  -6.42648 39.51 10.5658 -15.0456 -71.4006 12.1663
RightUpLeg  4.22691 16.4817 1.02897
RightLeg  43.2522 8.57765 8.26616
RightFoot  43.4184 -12.222 23.9901
RightToes  -5.8209e-011 0 -3.6325e-017
Spine  -10.0697 24.495 35.2872
Spine1  -1.02022 24.337 -23.2652
HEad  24.0036 -59.161 -16.2209
LeftShoulder1  1.96884 -6.25494 -13.1776
LeftArm  -71.8867 -34.7513 -4.87479
LeftForeArm  156.195 -81.053 -113.379
LeftHand  -0.246645 0.021 5.37786
RightShoulder  2.56111 10.6556 10.8903
RightArm  111.437 54.6771 166.004
RightForeArm  49.9143 55.2164 11.9711
RightHand  -0.24729 -0.0210522 -5.37781
LeftUpLeg  -8.20608 -5.76763 -8.743
LeftLeg  67.2126 -75.2975 -67.775
LeftFoot  8.08851 1.54116 -9.27614
LeftToes  -7.45818e-011 -3.37383e-011 1.08613e-011
644
root  -6.42807 39.5159 10.5285 -15.0849 -71.4549 12.22
RightUpLeg  4.18068 16.457 1.02904
RightLeg  43.2479 8.61513 8.30166
RightFoot  43.4512 -12.2142 23.9597
RightToes  -5.8209e-011 0 -3.6325e-017
Spine  -10.0266 24.4106 35.141
Spine1  -0.831231 24.3166 -23.1975
HEad  23.7093 -59.0733 -16.0673
LeftShoulder1  1.97813 -6.24114 -13.314
LeftArm  -71.8993 -35.0026 -4.86722
LeftForeArm  155.477 -81.078 -112.867
LeftHand  -0.246645 0.021 5.37786
RightShoulder  2.58507 10.7656 10.9215
RightArm  111.359 54.7344 165.955
RightForeArm  49.7801 55.0535 11.8979
RightHand  -0.24729 -0.0210522 -5.37781
LeftUpLeg  -8.21545 -5.88653 -8.70603
LeftLeg  66.5839 -75.2579 -67.0835
LeftFoot  8.02944 1.51365 -9.14243
LeftToes  -7.45818e-011 -3.37383e-011 1.08613e-011
